<svg width="550" height="400" viewBox="0 0 550 400" fill="none" xmlns="http://www.w3.org/2000/svg">
<rect width="550" height="400" fill="black"/>
<path d="M66.6144 261.786V253.417H65V263.33H79.416V261.786H66.6144Z" fill="#FFC72C"/>
<path d="M83.5 256.065V260.71C83.5 262.183 84.7603 263.358 86.2897 263.358H98.3692C99.8986 263.358 101.159 262.183 101.159 260.71V256.065C101.159 254.593 99.8986 253.417 98.3692 253.417H86.2897C84.7603 253.417 83.5 254.593 83.5 256.065ZM85.086 260.696V256.051C85.086 255.471 85.61 254.975 86.2756 254.975H98.355C99.0206 254.975 99.5445 255.471 99.5445 256.051V260.696C99.5445 261.263 99.0206 261.786 98.355 261.786H86.2756C85.61 261.786 85.086 261.263 85.086 260.696Z" fill="#FFC72C"/>
<path d="M105.383 258.359C105.383 261.135 107.79 263.316 110.594 263.316H123.07V261.772H110.594C108.555 261.772 107.011 260.13 107.011 258.359C107.026 258.147 107.04 257.991 107.082 257.836L107.125 257.637C107.479 256.094 108.951 254.975 110.495 254.975C110.523 254.975 110.552 254.975 110.58 254.975H123.056V253.417H110.58C107.819 253.417 105.383 255.584 105.383 258.359Z" fill="#FFC72C"/>
<path d="M126.445 263.344H140.238L138.822 261.801H130.028L135.508 255.796L135.806 256.122C137.123 257.567 142.348 263.273 142.419 263.344H144.572C142.362 260.909 136.514 254.494 135.508 253.431L126.445 263.344Z" fill="#FFC72C"/>
<path d="M141.9 254.975H149.901V263.33H151.516V254.975H159.545V253.417H141.9V254.975Z" fill="#FFC72C"/>
<path d="M165.255 263.33V253.417H163.627V263.33H165.255Z" fill="#FFC72C"/>
<path d="M169.906 256.065V260.71C169.906 262.183 171.167 263.358 172.696 263.358H184.775C186.305 263.358 187.565 262.183 187.565 260.71V256.065C187.565 254.593 186.305 253.417 184.775 253.417H172.696C171.167 253.417 169.906 254.593 169.906 256.065ZM171.492 260.696V256.051C171.492 255.471 172.016 254.975 172.682 254.975H184.761C185.427 254.975 185.951 255.471 185.951 256.051V260.696C185.951 261.263 185.427 261.786 184.761 261.786H172.682C172.016 261.786 171.492 261.263 171.492 260.696Z" fill="#FFC72C"/>
<path d="M192.215 263.259H193.843V255.825C207.339 262.112 209.477 263.16 209.831 263.302L209.888 263.33V253.417H208.274V260.852L192.215 253.361V263.259Z" fill="#FFC72C"/>
<path d="M230.699 258.912V257.51H226.691V258.912H230.699Z" fill="#FFC72C"/>
<path d="M246.795 263.344H260.588L259.172 261.801H250.378L255.858 255.796L256.155 256.122C257.472 257.567 262.698 263.273 262.769 263.344H264.921C262.712 260.909 256.863 254.494 255.858 253.431L246.795 263.344Z" fill="#FFC72C"/>
<path d="M266.668 258.359C266.668 261.135 269.075 263.316 271.879 263.316H284.355V261.772H271.879C269.84 261.772 268.296 260.13 268.296 258.359C268.311 258.147 268.325 257.991 268.367 257.836L268.41 257.637C268.764 256.094 270.237 254.975 271.78 254.975C271.808 254.975 271.837 254.975 271.865 254.975H284.341V253.417H271.865C269.104 253.417 266.668 255.584 266.668 258.359Z" fill="#FFC72C"/>
<path d="M288.439 253.417V263.33H290.04V259.153H304.47V263.33H306.084V253.417H304.47V257.609H290.04V253.417H288.439Z" fill="#FFC72C"/>
<path d="M310.025 263.344H323.818L322.402 261.801H313.608L319.089 255.796L319.386 256.122C320.703 257.567 325.928 263.273 325.999 263.344H328.152C325.942 260.909 320.094 254.494 319.089 253.431L310.025 263.344Z" fill="#FFC72C"/>
<path d="M325.48 254.975H333.482V263.33H335.096V254.975H343.125V253.417H325.48V254.975Z" fill="#FFC72C"/>
<path d="M363.371 258.912V257.51H359.363V258.912H363.371Z" fill="#FFC72C"/>
<path d="M388.516 263.33C389.96 261.73 396.007 255.131 397.579 253.403L395.426 253.417C393.005 256.009 390.782 258.459 388.516 260.965L381.619 253.417H379.467L388.516 263.33Z" fill="#FFC72C"/>
<path d="M401.52 263.33H419.193V261.772H401.52V263.33ZM419.193 254.947V253.403L401.52 253.389V254.947H419.193ZM401.52 257.595V259.124H418.343V257.595H401.52Z" fill="#FFC72C"/>
<path d="M423.844 263.259H425.472V255.825C438.968 262.112 441.106 263.16 441.46 263.302L441.517 263.33V253.417H439.902V260.852L423.844 253.361V263.259Z" fill="#FFC72C"/>
<path d="M445.6 254.975H453.601V263.33H455.215V254.975H463.244V253.417H445.6V254.975Z" fill="#FFC72C"/>
<path d="M467.326 263.33H484.999V261.772H467.326V263.33ZM484.999 254.947V253.403L467.326 253.389V254.947H484.999ZM467.326 257.595V259.124H484.15V257.595H467.326Z" fill="#FFC72C"/>
<path d="M65 243.42V242.274H485V243.42H65Z" fill="#FFC72C"/>
<path d="M94.3193 219.307C94.3193 220.436 94.0372 221.501 93.4728 222.501C91.7799 225.451 88.5735 226.926 83.8536 226.926H65V200.646H83.8536C88.3426 200.646 91.4849 202.044 93.2805 204.84C93.973 205.969 94.3193 207.174 94.3193 208.457C94.3193 210.637 93.3959 212.471 91.549 213.959C93.3959 215.396 94.3193 217.178 94.3193 219.307ZM89.8945 208.418C89.8945 207.315 89.2532 206.469 87.9706 205.879C86.9702 205.443 85.8288 205.225 84.5462 205.225H69.5787V222.347H84.5462C85.8031 222.347 86.919 222.155 87.8937 221.77C89.2276 221.206 89.8945 220.398 89.8945 219.346C89.8945 218.269 89.2276 217.448 87.8937 216.883C86.8933 216.473 85.7775 216.268 84.5462 216.268H72.2721V211.689H84.5462C85.8288 211.689 86.9702 211.458 87.9706 210.996C89.2532 210.406 89.8945 209.547 89.8945 208.418Z" fill="#FFC72C"/>
<path d="M103.632 224.733C103.632 225.425 103.414 225.99 102.978 226.426C102.541 226.862 101.977 227.08 101.285 227.08C100.618 227.08 100.06 226.862 99.6108 226.426C99.1619 225.99 98.9375 225.425 98.9375 224.733C98.9375 224.066 99.1619 223.514 99.6108 223.078C100.06 222.642 100.618 222.424 101.285 222.424C101.977 222.424 102.541 222.642 102.978 223.078C103.414 223.514 103.632 224.066 103.632 224.733Z" fill="#FFC72C"/>
<path d="M131.335 226.964H108.672V200.685H113.251V222.386H131.335V226.964Z" fill="#FFC72C"/>
<path d="M139.3 224.733C139.3 225.425 139.082 225.99 138.646 226.426C138.209 226.862 137.645 227.08 136.953 227.08C136.286 227.08 135.728 226.862 135.279 226.426C134.83 225.99 134.605 225.425 134.605 224.733C134.605 224.066 134.83 223.514 135.279 223.078C135.728 222.642 136.286 222.424 136.953 222.424C137.645 222.424 138.209 222.642 138.646 223.078C139.082 223.514 139.3 224.066 139.3 224.733Z" fill="#FFC72C"/>
<path d="M184.74 227.003H179.584L175.775 208.611L166.963 225.579C166.373 226.733 165.553 227.311 164.501 227.311C163.321 227.311 162.423 226.721 161.808 225.541L152.996 208.611L149.226 227.003H144.031L149.918 202.878C150.072 202.185 150.412 201.582 150.938 201.069C151.464 200.556 152.073 200.3 152.765 200.3C153.766 200.3 154.715 201.159 155.613 202.878L164.385 220.077L173.197 202.878C174.094 201.159 175.044 200.3 176.044 200.3C176.711 200.3 177.327 200.569 177.891 201.108C178.378 201.595 178.712 202.185 178.891 202.878L184.74 227.003Z" fill="#FFC72C"/>
<path d="M194.206 224.733C194.206 225.425 193.988 225.99 193.552 226.426C193.116 226.862 192.551 227.08 191.859 227.08C191.192 227.08 190.634 226.862 190.185 226.426C189.736 225.99 189.512 225.425 189.512 224.733C189.512 224.066 189.736 223.514 190.185 223.078C190.634 222.642 191.192 222.424 191.859 222.424C192.551 222.424 193.116 222.642 193.552 223.078C193.988 223.514 194.206 224.066 194.206 224.733Z" fill="#FFC72C"/>
<path d="M240.069 226.964H225.216C221.394 226.964 218.233 225.695 215.732 223.155C213.231 220.616 211.98 217.409 211.98 213.536C211.98 209.688 213.218 206.584 215.693 204.225C218.169 201.865 221.343 200.685 225.216 200.685H240.069V205.263H225.216C222.703 205.263 220.631 206.071 219.002 207.687C217.374 209.303 216.559 211.381 216.559 213.921C216.559 216.434 217.374 218.474 219.002 220.038C220.631 221.603 222.703 222.386 225.216 222.386H240.069V226.964Z" fill="#FFC72C"/>
<path d="M278.2 226.964L272.313 226.926L267.888 219.577H255.422L258.192 215.036H265.156L260.578 207.457L248.727 226.926H242.84L257.115 203.186C257.474 202.57 257.974 202.006 258.615 201.493C259.385 200.903 260.077 200.608 260.693 200.608C261.36 200.608 262.053 200.89 262.771 201.454C263.386 201.942 263.887 202.519 264.271 203.186L278.2 226.964Z" fill="#FFC72C"/>
<path d="M311.213 226.964H304.441L297.092 219.577H287.204V215.036H299.516C301.209 215.036 302.633 214.665 303.787 213.921C305.095 213.049 305.75 211.804 305.75 210.188C305.75 206.905 303.672 205.263 299.516 205.263H284.51V226.964H279.932V200.685H298.785C302.171 200.685 304.903 201.416 306.981 202.878C309.366 204.545 310.559 206.995 310.559 210.227C310.559 212.433 309.867 214.331 308.481 215.921C307.199 217.409 305.455 218.448 303.249 219.038L311.213 226.964Z" fill="#FFC72C"/>
<path d="M343.573 218.846C343.573 221.334 342.688 223.335 340.918 224.848C339.225 226.259 337.109 226.964 334.569 226.964H314.523V222.386H334.569C335.826 222.386 336.917 222.103 337.84 221.539C338.892 220.846 339.418 219.91 339.418 218.73C339.418 217.55 338.879 216.64 337.802 215.998C336.904 215.46 335.826 215.19 334.569 215.19H322.18C319.897 215.19 317.986 214.562 316.447 213.305C314.805 211.946 313.984 210.15 313.984 207.918C313.984 205.712 314.805 203.93 316.447 202.57C317.986 201.313 319.897 200.685 322.18 200.685H341.995V205.263H322.18C321.308 205.263 320.564 205.507 319.948 205.994C319.333 206.482 319.025 207.136 319.025 207.957C319.025 208.803 319.333 209.457 319.948 209.919C320.564 210.381 321.308 210.612 322.18 210.612H334.569C337.109 210.612 339.225 211.343 340.918 212.805C342.688 214.344 343.573 216.358 343.573 218.846Z" fill="#FFC72C"/>
<path fill-rule="evenodd" clip-rule="evenodd" d="M385.621 225.335C387.54 223.694 388.5 221.531 388.5 218.846C388.5 216.163 387.541 213.987 385.624 212.32C383.81 210.753 381.554 209.97 378.855 209.97H366.466C365.736 209.97 365.121 209.782 364.619 209.406C364.174 209.073 363.952 208.59 363.952 207.957C363.952 207.343 364.179 206.856 364.632 206.497C365.131 206.102 365.742 205.905 366.466 205.905H386.281C386.303 205.905 386.324 205.904 386.345 205.902C386.365 205.9 386.385 205.896 386.406 205.892C386.428 205.888 386.448 205.883 386.467 205.877C386.487 205.871 386.507 205.864 386.528 205.856C386.547 205.848 386.566 205.839 386.583 205.829C386.602 205.819 386.62 205.808 386.637 205.797C386.654 205.785 386.671 205.772 386.689 205.759C386.703 205.746 386.718 205.732 386.733 205.717C386.748 205.702 386.763 205.686 386.778 205.67C386.791 205.654 386.803 205.637 386.814 205.62C386.826 205.602 386.837 205.584 386.846 205.566C386.856 205.547 386.866 205.528 386.875 205.509C386.883 205.489 386.889 205.47 386.894 205.45C386.9 205.429 386.905 205.409 386.91 205.389C386.914 205.368 386.917 205.347 386.919 205.326C386.922 205.305 386.923 205.284 386.923 205.263V200.685C386.923 200.664 386.922 200.643 386.919 200.622C386.917 200.601 386.914 200.58 386.91 200.56C386.905 200.539 386.9 200.519 386.894 200.499C386.889 200.478 386.883 200.459 386.875 200.439C386.866 200.42 386.856 200.401 386.846 200.382C386.837 200.364 386.826 200.346 386.814 200.328C386.803 200.311 386.791 200.294 386.778 200.278C386.763 200.262 386.748 200.246 386.733 200.231C386.718 200.216 386.703 200.202 386.689 200.189C386.671 200.176 386.654 200.163 386.637 200.151C386.62 200.14 386.602 200.129 386.583 200.119C386.566 200.109 386.547 200.1 386.528 200.092C386.507 200.084 386.487 200.077 386.467 200.071C386.448 200.065 386.428 200.06 386.406 200.056C386.385 200.052 386.365 200.049 386.345 200.046C386.324 200.044 386.303 200.043 386.281 200.043H366.466C364.03 200.043 361.983 200.721 360.324 202.076C358.527 203.564 357.629 205.511 357.629 207.918C357.629 210.351 358.528 212.312 360.327 213.802C361.984 215.155 364.03 215.832 366.466 215.832H378.855C379.994 215.832 380.962 216.071 381.759 216.55C382.628 217.066 383.062 217.793 383.062 218.73C383.062 219.677 382.635 220.432 381.782 220.998C380.963 221.495 379.988 221.744 378.855 221.744H358.809C358.788 221.744 358.767 221.745 358.746 221.747C358.725 221.749 358.704 221.753 358.684 221.757C358.663 221.761 358.643 221.766 358.623 221.772C358.602 221.778 358.583 221.785 358.564 221.793C358.544 221.801 358.525 221.81 358.507 221.82C358.488 221.83 358.47 221.841 358.453 221.852C358.435 221.864 358.418 221.877 358.402 221.89C358.386 221.903 358.37 221.917 358.355 221.932C358.341 221.947 358.326 221.963 358.313 221.979C358.3 221.995 358.287 222.012 358.276 222.029C358.264 222.047 358.253 222.065 358.243 222.083C358.233 222.102 358.224 222.121 358.216 222.14C358.208 222.16 358.201 222.179 358.195 222.199C358.189 222.22 358.184 222.24 358.18 222.26C358.176 222.281 358.173 222.302 358.171 222.323C358.169 222.344 358.168 222.365 358.168 222.386V226.964C358.168 226.985 358.169 227.006 358.171 227.027C358.173 227.048 358.176 227.069 358.18 227.089C358.184 227.11 358.189 227.13 358.195 227.15C358.201 227.171 358.208 227.19 358.216 227.21C358.224 227.229 358.233 227.248 358.243 227.267C358.253 227.285 358.264 227.303 358.276 227.321C358.287 227.338 358.3 227.355 358.313 227.371C358.326 227.387 358.341 227.403 358.355 227.418C358.37 227.433 358.386 227.447 358.402 227.46C358.418 227.473 358.435 227.486 358.453 227.498C358.47 227.509 358.488 227.52 358.507 227.53C358.525 227.54 358.544 227.549 358.564 227.557C358.583 227.565 358.602 227.572 358.623 227.578C358.643 227.584 358.663 227.589 358.684 227.593C358.704 227.597 358.725 227.6 358.746 227.603C358.767 227.605 358.788 227.606 358.809 227.606H378.855C381.55 227.606 383.805 226.849 385.621 225.335ZM384.784 213.29C386.406 214.7 387.218 216.552 387.218 218.846C387.218 221.137 386.407 222.975 384.787 224.361C383.217 225.669 381.24 226.323 378.855 226.323H359.45V223.027H378.855C380.233 223.027 381.434 222.713 382.46 222.086C382.466 222.082 382.473 222.079 382.479 222.075C383.723 221.255 384.345 220.141 384.345 218.73C384.345 217.307 383.702 216.213 382.415 215.447C381.417 214.849 380.231 214.549 378.855 214.549H366.466C364.335 214.549 362.559 213.969 361.138 212.808C359.654 211.579 358.911 209.949 358.911 207.918C358.911 205.913 359.655 204.295 361.142 203.064C362.561 201.905 364.335 201.326 366.466 201.326H385.64V204.622H366.466C365.445 204.622 364.568 204.912 363.836 205.492C363.058 206.107 362.669 206.929 362.669 207.957C362.669 209.017 363.063 209.842 363.849 210.432C364.579 210.979 365.451 211.253 366.466 211.253H378.855C381.236 211.253 383.212 211.932 384.784 213.29Z" fill="#FFC72C"/>
<path fill-rule="evenodd" clip-rule="evenodd" d="M406.367 199.556H409.522C409.569 199.556 409.616 199.551 409.663 199.54C409.71 199.529 409.755 199.514 409.797 199.493C409.842 199.472 409.883 199.447 409.919 199.417C409.958 199.387 409.992 199.354 410.022 199.316C410.048 199.283 410.07 199.248 410.089 199.211C410.108 199.173 410.124 199.135 410.137 199.094C410.15 199.054 410.158 199.013 410.16 198.971C410.164 198.929 410.164 198.887 410.16 198.845C410.155 198.803 410.147 198.762 410.134 198.722C410.121 198.682 410.104 198.643 410.083 198.606C410.064 198.569 410.04 198.535 410.012 198.502C409.987 198.47 409.957 198.441 409.922 198.415L406.806 195.914C406.75 195.868 406.687 195.833 406.617 195.809C406.548 195.785 406.478 195.772 406.405 195.772H402.211C402.183 195.772 402.155 195.774 402.128 195.778C402.102 195.781 402.075 195.787 402.048 195.794C402.022 195.801 401.996 195.809 401.971 195.82C401.945 195.83 401.92 195.842 401.897 195.855C401.871 195.869 401.848 195.884 401.826 195.901C401.805 195.917 401.785 195.935 401.765 195.954C401.744 195.973 401.725 195.994 401.708 196.015C401.691 196.037 401.676 196.059 401.663 196.083C401.652 196.101 401.641 196.12 401.631 196.138C401.622 196.157 401.615 196.177 401.608 196.197C401.6 196.216 401.593 196.236 401.589 196.257C401.585 196.277 401.58 196.298 401.576 196.318C401.574 196.339 401.572 196.36 401.57 196.381C401.57 196.402 401.57 196.423 401.57 196.444C401.572 196.465 401.574 196.486 401.576 196.507C401.58 196.527 401.585 196.548 401.589 196.568C401.593 196.589 401.6 196.609 401.608 196.629C401.615 196.648 401.622 196.668 401.631 196.687C401.639 196.706 401.649 196.724 401.66 196.742C401.67 196.76 401.682 196.778 401.695 196.795C401.708 196.812 401.722 196.828 401.737 196.843C401.749 196.859 401.763 196.874 401.778 196.888C401.795 196.902 401.812 196.916 401.829 196.928C401.844 196.941 401.862 196.952 401.881 196.963L406.036 199.464C406.085 199.494 406.138 199.517 406.193 199.533C406.251 199.548 406.309 199.556 406.367 199.556ZM407.697 198.273L406.181 197.055H404.52L406.546 198.273H407.697ZM419.715 227.567L425.602 227.606C425.659 227.606 425.716 227.599 425.772 227.584C425.827 227.569 425.88 227.547 425.929 227.518C425.948 227.507 425.966 227.496 425.983 227.483C425.998 227.471 426.014 227.458 426.031 227.444C426.046 227.43 426.061 227.415 426.076 227.4C426.091 227.384 426.104 227.368 426.115 227.352C426.128 227.335 426.139 227.317 426.15 227.3C426.163 227.282 426.174 227.263 426.182 227.244C426.191 227.225 426.199 227.206 426.208 227.186C426.214 227.167 426.221 227.147 426.227 227.126C426.231 227.106 426.236 227.086 426.24 227.065C426.242 227.044 426.244 227.023 426.246 227.002C426.246 226.981 426.246 226.96 426.246 226.939C426.244 226.918 426.242 226.897 426.24 226.877C426.238 226.856 426.233 226.835 426.227 226.815C426.223 226.794 426.217 226.774 426.211 226.754C426.205 226.735 426.197 226.715 426.189 226.696C426.18 226.677 426.17 226.658 426.16 226.64L412.231 202.865C411.806 202.128 411.253 201.489 410.573 200.95C409.738 200.294 408.912 199.966 408.098 199.966C407.337 199.966 406.511 200.308 405.619 200.992C404.916 201.555 404.367 202.176 403.971 202.855L389.697 226.595C389.667 226.645 389.643 226.698 389.626 226.754C389.611 226.81 389.604 226.868 389.604 226.926C389.604 226.947 389.605 226.968 389.607 226.989C389.609 227.01 389.612 227.03 389.616 227.051C389.621 227.072 389.626 227.092 389.632 227.112C389.637 227.132 389.643 227.152 389.652 227.171C389.66 227.191 389.67 227.21 389.68 227.228C389.689 227.247 389.7 227.265 389.713 227.282C389.723 227.3 389.735 227.316 389.748 227.333C389.763 227.349 389.778 227.364 389.793 227.379C389.808 227.394 389.823 227.408 389.838 227.422C389.855 227.435 389.872 227.447 389.889 227.459C389.906 227.471 389.924 227.481 389.943 227.491C389.96 227.501 389.979 227.51 389.998 227.518C390.019 227.526 390.04 227.533 390.059 227.539C390.078 227.546 390.098 227.551 390.12 227.555C390.141 227.559 390.161 227.562 390.181 227.564C390.202 227.566 390.223 227.567 390.245 227.567H396.132C396.16 227.567 396.187 227.565 396.215 227.562C396.241 227.558 396.267 227.553 396.295 227.546C396.321 227.539 396.347 227.531 396.372 227.52C396.398 227.51 396.422 227.498 396.446 227.485C396.469 227.471 396.492 227.457 396.513 227.44C396.537 227.424 396.558 227.406 396.577 227.387C396.597 227.368 396.615 227.348 396.632 227.326C396.649 227.305 396.665 227.283 396.68 227.259L407.979 208.693L411.426 214.395H405.597C405.569 214.395 405.543 214.397 405.517 214.4C405.489 214.404 405.461 214.409 405.434 214.416C405.408 214.423 405.382 214.432 405.357 214.442C405.331 214.452 405.306 214.464 405.283 214.477C405.259 214.491 405.237 214.506 405.215 214.522C405.192 214.538 405.171 214.556 405.151 214.575C405.132 214.594 405.114 214.614 405.097 214.635C405.08 214.657 405.064 214.679 405.049 214.702L402.278 219.243C402.248 219.293 402.225 219.347 402.208 219.403C402.193 219.46 402.185 219.518 402.185 219.577C402.185 219.598 402.187 219.619 402.189 219.64C402.191 219.661 402.194 219.681 402.198 219.702C402.203 219.722 402.208 219.743 402.214 219.763C402.219 219.783 402.225 219.803 402.234 219.822C402.242 219.842 402.252 219.861 402.262 219.879C402.271 219.898 402.282 219.916 402.294 219.933C402.305 219.95 402.317 219.967 402.33 219.984C402.345 220 402.36 220.015 402.375 220.03C402.39 220.045 402.405 220.059 402.419 220.072C402.437 220.086 402.454 220.098 402.471 220.11C402.488 220.122 402.506 220.132 402.525 220.142C402.542 220.152 402.561 220.161 402.58 220.169C402.601 220.177 402.622 220.184 402.641 220.19C402.66 220.196 402.68 220.202 402.702 220.206C402.723 220.21 402.743 220.213 402.763 220.215C402.784 220.217 402.805 220.218 402.827 220.218H414.931L419.17 227.257C419.183 227.28 419.198 227.302 419.215 227.324C419.232 227.345 419.25 227.366 419.269 227.385C419.288 227.404 419.31 227.422 419.333 227.438C419.355 227.455 419.377 227.469 419.401 227.483C419.424 227.497 419.449 227.509 419.474 227.519C419.5 227.529 419.526 227.538 419.551 227.545C419.579 227.552 419.606 227.558 419.631 227.561C419.659 227.565 419.687 227.567 419.715 227.567ZM424.483 226.316L411.122 203.506C410.778 202.91 410.33 202.394 409.778 201.958C409.178 201.485 408.617 201.249 408.098 201.249C407.628 201.249 407.069 201.497 406.421 201.993C405.842 202.457 405.391 202.964 405.068 203.516L391.38 226.285H395.773L407.434 207.123C407.49 207.034 407.563 206.962 407.652 206.908C407.687 206.886 407.724 206.868 407.765 206.853C407.805 206.839 407.846 206.829 407.886 206.823C407.927 206.816 407.969 206.814 408.011 206.816C408.054 206.818 408.096 206.824 408.137 206.834C408.177 206.844 408.217 206.858 408.255 206.876C408.294 206.894 408.33 206.915 408.364 206.94C408.396 206.965 408.427 206.993 408.457 207.024C408.485 207.055 408.51 207.089 408.531 207.125L413.11 214.705C413.14 214.755 413.163 214.808 413.18 214.864C413.195 214.921 413.203 214.978 413.203 215.036C413.203 215.057 413.202 215.078 413.199 215.099C413.197 215.12 413.194 215.141 413.19 215.162C413.186 215.182 413.18 215.203 413.174 215.223C413.169 215.243 413.163 215.262 413.155 215.282C413.146 215.301 413.136 215.32 413.126 215.339C413.117 215.357 413.106 215.375 413.094 215.393C413.083 215.41 413.071 215.427 413.058 215.443C413.043 215.46 413.028 215.475 413.013 215.49C412.998 215.505 412.984 215.519 412.969 215.532C412.951 215.546 412.934 215.558 412.917 215.57C412.9 215.581 412.882 215.592 412.863 215.602C412.846 215.612 412.827 215.621 412.808 215.629C412.787 215.637 412.767 215.644 412.747 215.65C412.728 215.656 412.708 215.661 412.686 215.665C412.665 215.67 412.645 215.673 412.625 215.675C412.604 215.677 412.583 215.678 412.561 215.678H405.956L403.968 218.935H415.293C415.321 218.935 415.349 218.937 415.377 218.941C415.402 218.944 415.429 218.95 415.457 218.957C415.482 218.964 415.508 218.972 415.534 218.983C415.559 218.993 415.584 219.005 415.607 219.018C415.633 219.032 415.657 219.047 415.678 219.064C415.699 219.08 415.72 219.098 415.739 219.117C415.76 219.136 415.78 219.157 415.797 219.178C415.814 219.2 415.829 219.222 415.841 219.246L420.08 226.287L424.483 226.316Z" fill="#FFC72C"/>
<path fill-rule="evenodd" clip-rule="evenodd" d="M451.846 227.606H458.618C458.661 227.606 458.703 227.601 458.743 227.593C458.786 227.585 458.827 227.573 458.865 227.556C458.904 227.54 458.94 227.52 458.974 227.497C459.011 227.473 459.044 227.447 459.074 227.417C459.089 227.402 459.102 227.386 459.115 227.37C459.128 227.354 459.141 227.337 459.154 227.319C459.164 227.302 459.175 227.284 459.186 227.265C459.194 227.247 459.203 227.228 459.211 227.208C459.22 227.189 459.227 227.169 459.234 227.149C459.238 227.129 459.242 227.109 459.247 227.088C459.251 227.067 459.254 227.047 459.256 227.026C459.258 227.005 459.26 226.984 459.26 226.963C459.26 226.942 459.258 226.921 459.256 226.9C459.254 226.879 459.251 226.858 459.247 226.838C459.242 226.817 459.237 226.797 459.231 226.777C459.224 226.757 459.218 226.737 459.211 226.717C459.203 226.698 459.193 226.679 459.183 226.661C459.172 226.642 459.161 226.624 459.151 226.607C459.14 226.589 459.127 226.573 459.112 226.556C459.099 226.54 459.085 226.525 459.07 226.51L451.862 219.336C453.711 218.682 455.214 217.685 456.371 216.343C457.86 214.632 458.605 212.593 458.605 210.227C458.605 206.772 457.322 204.148 454.755 202.353C452.566 200.813 449.711 200.043 446.19 200.043H427.337C427.315 200.043 427.294 200.044 427.272 200.046C427.253 200.049 427.233 200.052 427.212 200.056C427.19 200.06 427.17 200.065 427.151 200.071C427.131 200.077 427.111 200.084 427.09 200.092C427.07 200.1 427.052 200.109 427.035 200.119C427.016 200.129 426.998 200.14 426.981 200.151C426.964 200.163 426.946 200.176 426.929 200.189C426.914 200.202 426.899 200.216 426.884 200.231C426.87 200.246 426.855 200.262 426.84 200.278C426.827 200.294 426.815 200.311 426.804 200.328C426.792 200.346 426.781 200.364 426.772 200.382C426.762 200.401 426.752 200.42 426.743 200.439C426.735 200.459 426.728 200.478 426.724 200.498C426.718 200.519 426.712 200.539 426.708 200.56C426.704 200.58 426.701 200.601 426.699 200.622C426.696 200.643 426.695 200.664 426.695 200.685V226.964C426.695 226.985 426.696 227.006 426.699 227.027C426.701 227.048 426.704 227.069 426.708 227.089C426.712 227.11 426.718 227.13 426.724 227.15C426.728 227.171 426.735 227.19 426.743 227.21C426.752 227.229 426.762 227.248 426.772 227.267C426.781 227.285 426.792 227.303 426.804 227.321C426.815 227.338 426.827 227.355 426.84 227.371C426.855 227.387 426.87 227.403 426.884 227.418C426.899 227.433 426.914 227.447 426.929 227.46C426.946 227.473 426.964 227.486 426.981 227.497C426.998 227.509 427.016 227.52 427.035 227.53C427.052 227.54 427.07 227.549 427.09 227.557C427.111 227.565 427.131 227.572 427.151 227.578C427.17 227.584 427.19 227.589 427.212 227.593C427.233 227.597 427.253 227.6 427.272 227.602C427.294 227.605 427.315 227.606 427.337 227.606H431.915C431.937 227.606 431.958 227.605 431.979 227.602C431.999 227.6 432.019 227.597 432.04 227.593C432.062 227.589 432.082 227.584 432.101 227.578C432.121 227.572 432.141 227.565 432.162 227.557C432.181 227.549 432.2 227.54 432.217 227.53C432.236 227.52 432.254 227.509 432.271 227.497C432.288 227.486 432.305 227.473 432.323 227.46C432.338 227.447 432.352 227.433 432.367 227.418C432.382 227.403 432.397 227.387 432.412 227.371C432.425 227.355 432.437 227.338 432.448 227.321C432.46 227.303 432.471 227.285 432.48 227.267C432.49 227.248 432.5 227.229 432.509 227.21C432.517 227.19 432.523 227.171 432.528 227.15C432.534 227.13 432.54 227.11 432.544 227.089C432.548 227.069 432.551 227.048 432.553 227.027C432.556 227.006 432.557 226.985 432.557 226.964V205.905H446.921C450.649 205.905 452.513 207.333 452.513 210.188C452.513 211.576 451.957 212.64 450.846 213.382C449.796 214.057 448.488 214.395 446.921 214.395H434.609C434.587 214.395 434.566 214.396 434.545 214.398C434.525 214.4 434.505 214.403 434.484 214.408C434.462 214.412 434.442 214.417 434.423 214.423C434.403 214.429 434.383 214.436 434.362 214.444C434.343 214.452 434.324 214.461 434.307 214.471C434.288 214.481 434.27 214.492 434.253 214.503C434.236 214.515 434.219 214.527 434.202 214.541C434.187 214.554 434.172 214.568 434.157 214.583C434.142 214.598 434.127 214.613 434.112 214.63C434.099 214.646 434.087 214.663 434.076 214.68C434.064 214.698 434.053 214.716 434.044 214.734C434.034 214.753 434.024 214.772 434.016 214.791C434.007 214.81 434.001 214.83 433.996 214.85C433.99 214.87 433.985 214.891 433.98 214.911C433.976 214.932 433.973 214.953 433.971 214.974C433.969 214.994 433.967 215.015 433.967 215.036V219.577C433.967 219.598 433.969 219.619 433.971 219.64C433.973 219.66 433.976 219.681 433.98 219.702C433.985 219.722 433.99 219.743 433.996 219.763C434.001 219.783 434.007 219.803 434.016 219.822C434.024 219.842 434.034 219.86 434.044 219.879C434.053 219.898 434.064 219.916 434.076 219.933C434.087 219.95 434.099 219.967 434.112 219.984C434.127 220 434.142 220.015 434.157 220.03C434.172 220.045 434.187 220.059 434.202 220.072C434.219 220.086 434.236 220.098 434.253 220.11C434.27 220.122 434.288 220.132 434.307 220.142C434.324 220.152 434.343 220.161 434.362 220.169C434.383 220.177 434.403 220.184 434.423 220.19C434.442 220.196 434.462 220.202 434.484 220.206C434.505 220.21 434.525 220.213 434.545 220.215C434.566 220.217 434.587 220.218 434.609 220.218H444.231L451.391 227.417C451.421 227.446 451.454 227.473 451.49 227.497C451.525 227.52 451.561 227.54 451.599 227.556C451.638 227.573 451.679 227.585 451.721 227.593C451.762 227.601 451.804 227.606 451.846 227.606ZM457.066 226.323L450.201 219.493C450.161 219.453 450.127 219.408 450.099 219.359C450.071 219.31 450.05 219.258 450.035 219.204C450.024 219.163 450.017 219.122 450.012 219.08C450.01 219.038 450.012 218.996 450.019 218.954C450.023 218.912 450.033 218.872 450.048 218.832C450.06 218.792 450.077 218.754 450.099 218.717C450.12 218.681 450.145 218.647 450.173 218.615C450.2 218.583 450.23 218.555 450.262 218.529C450.297 218.504 450.333 218.481 450.371 218.463C450.408 218.444 450.446 218.429 450.487 218.419C452.567 217.863 454.205 216.89 455.402 215.5C456.683 214.031 457.323 212.273 457.323 210.227C457.323 207.218 456.221 204.943 454.017 203.402C452.05 202.018 449.442 201.326 446.19 201.326H427.978V226.323H431.274V205.263C431.274 205.242 431.275 205.221 431.277 205.201C431.279 205.18 431.283 205.159 431.287 205.138C431.291 205.118 431.297 205.097 431.303 205.077C431.307 205.057 431.314 205.037 431.322 205.018C431.331 204.999 431.34 204.98 431.351 204.961C431.36 204.943 431.37 204.925 431.383 204.907C431.394 204.89 431.406 204.873 431.418 204.857C431.433 204.84 431.448 204.825 431.463 204.81C431.478 204.795 431.493 204.781 431.508 204.768C431.525 204.754 431.542 204.742 431.559 204.73C431.577 204.719 431.595 204.708 431.614 204.698C431.631 204.688 431.649 204.679 431.668 204.671C431.69 204.663 431.71 204.656 431.729 204.65C431.749 204.644 431.769 204.639 431.79 204.634C431.812 204.63 431.832 204.627 431.851 204.625C431.873 204.623 431.894 204.622 431.915 204.622H446.921C451.504 204.622 453.796 206.478 453.796 210.188C453.796 212.033 453.043 213.457 451.539 214.46C450.279 215.272 448.74 215.678 446.921 215.678H435.25V218.936H444.497C444.54 218.936 444.582 218.94 444.622 218.948C444.665 218.956 444.706 218.968 444.744 218.985C444.783 219.001 444.819 219.021 444.853 219.044C444.89 219.068 444.923 219.095 444.953 219.125L452.112 226.323L457.066 226.323Z" fill="#FFC72C"/>
<path fill-rule="evenodd" clip-rule="evenodd" d="M461.696 227.606H484.359C484.38 227.606 484.402 227.605 484.423 227.602C484.442 227.6 484.462 227.597 484.484 227.593C484.505 227.589 484.526 227.584 484.545 227.578C484.564 227.572 484.584 227.565 484.606 227.557C484.625 227.549 484.643 227.54 484.66 227.53C484.679 227.52 484.698 227.509 484.715 227.497C484.732 227.486 484.749 227.473 484.766 227.46C484.781 227.447 484.796 227.433 484.811 227.418C484.826 227.403 484.841 227.387 484.856 227.371C484.869 227.355 484.88 227.338 484.891 227.321C484.904 227.303 484.915 227.285 484.923 227.267C484.934 227.248 484.943 227.229 484.952 227.21C484.961 227.19 484.967 227.171 484.971 227.15C484.978 227.13 484.983 227.11 484.987 227.089C484.992 227.069 484.995 227.048 484.997 227.027C484.999 227.006 485 226.985 485 226.964V222.386C485 222.365 484.999 222.344 484.997 222.323C484.995 222.302 484.992 222.281 484.987 222.26C484.983 222.24 484.978 222.22 484.971 222.199C484.967 222.179 484.961 222.16 484.952 222.14C484.943 222.121 484.934 222.102 484.923 222.083C484.915 222.065 484.904 222.047 484.891 222.029C484.88 222.012 484.869 221.995 484.856 221.979C484.841 221.963 484.826 221.947 484.811 221.932C484.796 221.917 484.781 221.903 484.766 221.89C484.749 221.877 484.732 221.864 484.715 221.852C484.698 221.841 484.679 221.83 484.66 221.82C484.643 221.81 484.625 221.801 484.606 221.793C484.584 221.785 484.564 221.778 484.545 221.772C484.526 221.766 484.505 221.761 484.484 221.757C484.462 221.753 484.442 221.749 484.423 221.747C484.402 221.745 484.38 221.744 484.359 221.744H466.916V200.685C466.916 200.664 466.915 200.643 466.913 200.622C466.911 200.601 466.907 200.58 466.903 200.56C466.899 200.539 466.894 200.519 466.887 200.499C466.883 200.478 466.876 200.459 466.868 200.439C466.859 200.42 466.85 200.401 466.839 200.382C466.83 200.364 466.82 200.346 466.807 200.328C466.796 200.311 466.785 200.294 466.772 200.278C466.757 200.262 466.742 200.246 466.727 200.231C466.712 200.216 466.697 200.202 466.682 200.189C466.665 200.176 466.648 200.163 466.631 200.151C466.614 200.14 466.595 200.129 466.576 200.119C466.559 200.109 466.541 200.1 466.522 200.092C466.5 200.084 466.48 200.077 466.461 200.071C466.441 200.065 466.421 200.06 466.4 200.056C466.378 200.052 466.358 200.049 466.339 200.046C466.317 200.044 466.296 200.043 466.275 200.043H461.696C461.675 200.043 461.653 200.044 461.632 200.046C461.613 200.049 461.592 200.052 461.571 200.056C461.55 200.06 461.529 200.065 461.51 200.071C461.491 200.077 461.47 200.084 461.449 200.092C461.43 200.1 461.412 200.109 461.395 200.119C461.375 200.129 461.357 200.14 461.34 200.151C461.323 200.163 461.306 200.176 461.289 200.189C461.274 200.202 461.259 200.216 461.244 200.231C461.229 200.246 461.214 200.262 461.199 200.278C461.186 200.294 461.174 200.311 461.164 200.328C461.151 200.346 461.14 200.364 461.132 200.382C461.121 200.401 461.111 200.42 461.103 200.439C461.094 200.459 461.088 200.478 461.084 200.499C461.077 200.519 461.072 200.539 461.068 200.56C461.063 200.58 461.06 200.601 461.058 200.622C461.056 200.643 461.055 200.664 461.055 200.685V226.964C461.055 226.985 461.056 227.006 461.058 227.027C461.06 227.048 461.063 227.069 461.068 227.089C461.072 227.11 461.077 227.13 461.084 227.15C461.088 227.171 461.094 227.19 461.103 227.21C461.111 227.229 461.121 227.248 461.132 227.267C461.14 227.285 461.151 227.303 461.164 227.321C461.174 227.338 461.186 227.355 461.199 227.371C461.214 227.387 461.229 227.403 461.244 227.418C461.259 227.433 461.274 227.447 461.289 227.46C461.306 227.473 461.323 227.486 461.34 227.498C461.357 227.509 461.375 227.52 461.395 227.53C461.412 227.54 461.43 227.549 461.449 227.557C461.47 227.565 461.491 227.572 461.51 227.578C461.529 227.584 461.55 227.589 461.571 227.593C461.592 227.597 461.613 227.6 461.632 227.603C461.653 227.605 461.675 227.606 461.696 227.606ZM483.718 226.323H462.337V201.326H465.633V222.386C465.633 222.407 465.634 222.428 465.637 222.448C465.639 222.469 465.642 222.49 465.646 222.511C465.651 222.531 465.656 222.552 465.662 222.572C465.667 222.592 465.673 222.612 465.682 222.631C465.69 222.65 465.7 222.669 465.71 222.688C465.719 222.706 465.73 222.724 465.742 222.742C465.753 222.759 465.765 222.776 465.778 222.792C465.793 222.809 465.808 222.824 465.823 222.839C465.838 222.854 465.853 222.868 465.867 222.881C465.885 222.895 465.902 222.907 465.919 222.919C465.936 222.93 465.954 222.941 465.973 222.951C465.99 222.961 466.009 222.97 466.028 222.978C466.049 222.986 466.07 222.993 466.089 222.999C466.108 223.005 466.128 223.01 466.15 223.014C466.171 223.019 466.191 223.022 466.211 223.024C466.232 223.026 466.253 223.027 466.275 223.027H483.718V226.323Z" fill="#FFC72C"/>
<path fill-rule="evenodd" clip-rule="evenodd" d="M256.78 137.55C206.053 140.124 164.037 160.482 164.037 160.482C164.037 160.482 201.607 149.016 228.96 144.128C256.338 139.266 293.18 137.966 305.374 139.89C320.919 142.341 353.943 160.562 357.658 162.631C355.765 162.805 353.194 163.016 349.705 163.264C347.924 163.386 344.772 163.45 340.568 163.456C337.331 160.38 322.72 147.11 308.13 143.738C291.568 139.916 262.604 139.136 238.424 144.856C218.965 149.459 211.764 155.005 215.914 157.741C182.436 155.575 165.519 162.198 165.519 162.198C180.807 160.924 189.309 160.482 214.529 161.34C223.011 161.628 232.595 162.274 243.322 162.998C264.527 164.427 290.197 166.158 320.636 166.02C366.475 165.812 362.861 161.99 362.861 161.99C362.861 161.99 362.325 162.198 357.72 162.625C355.516 161.068 340.568 150.645 327.24 144.57C326.949 144.436 326.661 144.304 326.375 144.173C312.577 137.848 306.48 135.053 256.78 137.55ZM283.482 143.426C317.063 144.46 334.115 159.061 340.29 163.457C315.771 163.481 256.456 161.623 223.655 158.376C222.021 158.214 220.42 158.073 218.853 157.95C217.493 156.762 216.789 154.806 221.887 152.5C230.312 148.678 247.992 142.308 283.482 143.426ZM203.531 143.608L137.413 145.038L188.217 147.898L203.531 143.608ZM173.969 151.512L86.3223 151.044L165.571 155.438L173.969 151.512ZM158.447 161.106L110.034 162.536L157.251 165.396L158.447 161.106ZM435.245 183.414C421.465 164.304 362.887 161.964 362.887 161.964C422.739 171.948 435.245 183.414 435.245 183.414ZM161.073 171.09C159.487 170.778 163.465 163.134 163.465 163.134L162.347 169.972C170.615 171.714 181.119 170.284 181.119 170.284L165.363 164.07L183.823 169.972C178.883 173.794 162.659 171.402 161.073 171.09ZM435.037 186.378C435.037 186.378 423.805 190.616 414.237 186.378C412.914 185.79 411.533 185.132 410.08 184.438C406.128 182.551 401.617 180.398 396.105 178.651C397.503 179.439 398.92 180.347 400.353 181.386C400.353 181.386 400.34 181.38 400.314 181.367C399.498 180.947 385.653 173.82 364.577 177.278C364.577 177.278 366.306 176.257 369.296 175.342C369.205 175.346 369.114 175.35 369.023 175.354C345.675 176.42 272.25 173.43 249.76 171.74C228.804 170.154 356.933 172.39 376.043 172.806C395.127 173.222 407.451 181.932 415.511 184.272C423.597 186.586 435.037 186.378 435.037 186.378ZM224.201 181.386C205.065 167.476 188.451 177.278 188.451 177.278C210.161 173.716 224.201 181.386 224.201 181.386Z" fill="#FFC72C"/>
<g opacity="0.04">
<path d="M129.519 335.3C130.854 336.901 131.744 338.826 132.099 340.88C132.261 341.871 132.298 342.879 132.209 343.88C132.121 344.88 131.906 345.865 131.569 346.81C131.214 347.772 130.74 348.685 130.159 349.53C129.557 350.396 128.841 351.177 128.029 351.85C127.227 352.526 126.339 353.095 125.389 353.54C124.458 353.953 123.481 354.255 122.479 354.44C121.488 354.601 120.48 354.641 119.479 354.56C118.48 354.468 117.496 354.253 116.549 353.92C115.586 353.58 114.672 353.116 113.829 352.54C112.103 351.317 110.724 349.667 109.829 347.75C109.408 346.819 109.109 345.838 108.939 344.83C108.772 343.839 108.728 342.832 108.809 341.83C108.895 340.833 109.11 339.851 109.449 338.91C110.151 336.962 111.359 335.237 112.949 333.91C113.757 333.226 114.655 332.657 115.619 332.22C116.548 331.79 117.53 331.484 118.539 331.31C119.528 331.129 120.538 331.089 121.539 331.19C123.568 331.352 125.519 332.042 127.199 333.19C128.071 333.788 128.858 334.501 129.539 335.31M128.139 344.07C127.812 344.882 127.403 345.66 126.919 346.39C126.412 347.138 125.803 347.811 125.109 348.39C124.408 348.99 123.601 349.455 122.729 349.76C121.894 350.054 121.006 350.166 120.124 350.086C119.242 350.007 118.388 349.739 117.619 349.3C115.836 348.274 114.473 346.653 113.769 344.72C113.477 343.865 113.362 342.961 113.429 342.06C113.506 341.191 113.768 340.349 114.199 339.59C114.641 338.78 115.235 338.064 115.949 337.48C116.293 337.185 116.657 336.914 117.039 336.67C117.395 336.431 117.77 336.221 118.159 336.04C118.543 335.856 118.941 335.702 119.349 335.58C119.782 335.433 120.223 335.309 120.669 335.21L122.669 337.59C122.146 337.615 121.625 337.672 121.109 337.76C120.691 337.833 120.28 337.94 119.879 338.08C119.527 338.201 119.191 338.366 118.879 338.57C118.55 338.765 118.238 338.989 117.949 339.24C117.476 339.621 117.084 340.094 116.799 340.63C116.538 341.118 116.384 341.657 116.349 342.21C116.325 342.765 116.413 343.32 116.609 343.84C117.087 345 117.911 345.985 118.969 346.66C119.454 346.934 119.987 347.114 120.539 347.19C121.085 347.248 121.637 347.19 122.159 347.02C122.735 346.827 123.268 346.525 123.729 346.13C124.02 345.882 124.297 345.618 124.559 345.34C124.806 345.052 125.024 344.741 125.209 344.41C125.413 344.042 125.593 343.661 125.749 343.27C125.927 342.783 126.074 342.285 126.189 341.78L128.189 344.11M113.729 348.66C114.496 349.58 115.442 350.336 116.509 350.88C117.535 351.401 118.652 351.72 119.799 351.82C120.942 351.91 122.092 351.785 123.189 351.45C124.331 351.106 125.389 350.531 126.299 349.76C127.221 348.994 127.976 348.048 128.519 346.98C129.057 345.956 129.397 344.84 129.519 343.69C129.678 341.915 129.303 340.133 128.442 338.572C127.582 337.012 126.275 335.743 124.689 334.93C122.605 333.874 120.191 333.669 117.959 334.36C116.818 334.714 115.76 335.292 114.845 336.059C113.93 336.827 113.176 337.769 112.629 338.83C111.572 340.907 111.367 343.315 112.059 345.54C112.407 346.685 112.985 347.747 113.759 348.66" fill="black"/>
<path d="M146.998 314C146.518 314.12 145.908 314.31 145.178 314.57C144.361 314.86 143.56 315.194 142.778 315.57C141.826 315.995 140.898 316.473 139.998 317C139.044 317.573 138.138 318.222 137.288 318.94C136.588 319.53 136.008 320.05 135.548 320.51C135.159 320.896 134.792 321.304 134.448 321.73C134.211 322.009 134.013 322.318 133.858 322.65C133.754 322.851 133.68 323.067 133.638 323.29C133.606 323.445 133.606 323.605 133.638 323.76C133.689 323.862 133.749 323.959 133.818 324.05C133.942 324.188 134.098 324.293 134.273 324.358C134.447 324.422 134.634 324.444 134.818 324.42C135.337 324.365 135.845 324.237 136.328 324.04C136.908 323.807 137.558 323.507 138.278 323.14L140.538 321.96C141.338 321.527 142.168 321.097 143.028 320.67C143.898 320.23 144.758 319.84 145.618 319.5C146.464 319.168 147.333 318.897 148.218 318.69C149.021 318.484 149.849 318.386 150.678 318.4C151.449 318.424 152.208 318.59 152.918 318.89C153.655 319.224 154.303 319.727 154.808 320.36C155.478 321.106 155.961 322.001 156.218 322.97C156.438 323.82 156.469 324.707 156.308 325.57C156.146 326.453 155.842 327.304 155.408 328.09C154.933 328.922 154.391 329.715 153.788 330.46C153.166 331.217 152.498 331.935 151.788 332.61C151.068 333.28 150.378 333.9 149.698 334.48C148.044 335.881 146.259 337.12 144.368 338.18C142.798 339.076 141.156 339.839 139.458 340.46L135.848 336.16C137.72 335.78 139.533 335.151 141.238 334.29C143.173 333.322 144.986 332.127 146.638 330.73C147.488 330.035 148.284 329.276 149.018 328.46C149.478 327.942 149.874 327.372 150.198 326.76C150.393 326.395 150.486 325.984 150.468 325.57C150.451 325.301 150.354 325.043 150.188 324.83C150.066 324.687 149.911 324.575 149.738 324.502C149.564 324.429 149.376 324.397 149.188 324.41C148.655 324.427 148.129 324.542 147.638 324.75C146.952 324.997 146.284 325.291 145.638 325.63C144.918 326 144.158 326.4 143.368 326.84L140.918 328.14C140.068 328.59 139.218 328.99 138.358 329.35C137.529 329.687 136.681 329.974 135.818 330.21C135.024 330.416 134.208 330.523 133.388 330.53C132.632 330.526 131.885 330.373 131.188 330.08C130.45 329.756 129.802 329.259 129.298 328.63C128.685 327.936 128.237 327.112 127.988 326.22C127.792 325.432 127.758 324.612 127.888 323.81C128.035 322.98 128.308 322.177 128.698 321.43C129.122 320.637 129.621 319.887 130.188 319.19C130.762 318.469 131.38 317.785 132.038 317.14C132.705 316.473 133.371 315.883 134.038 315.37C134.738 314.78 135.478 314.22 136.268 313.67C137.058 313.12 137.888 312.61 138.708 312.14C139.528 311.67 140.338 311.23 141.138 310.84C141.938 310.45 142.718 310.09 143.438 309.84L146.998 314Z" fill="black"/>
<path d="M186.759 302.57L176.159 289.94L180.079 308.18L175.419 312.09L158.149 305.09L168.749 317.72L163.889 321.79L148.799 303.79L155.389 298.25L174.079 305.77L169.929 286.06L176.499 280.54L191.589 298.54L186.759 302.59" fill="black"/>
<path d="M208.839 278.24L198.839 286.66L199.999 291.48L194.559 296L188.879 270.11L194.299 265.56L218.809 275.65L213.389 280.2L208.839 278.2M197.609 281.65L204.179 276.13L195.349 272.26L197.609 281.65Z" fill="black"/>
<path d="M227.488 246.38C227.008 246.5 226.398 246.69 225.668 246.95C224.851 247.24 224.05 247.574 223.268 247.95C222.34 248.387 221.438 248.877 220.568 249.42C219.614 249.993 218.708 250.642 217.858 251.36C217.158 251.95 216.578 252.47 216.118 252.93C215.727 253.314 215.359 253.721 215.018 254.15C214.784 254.427 214.585 254.733 214.428 255.06C214.325 255.265 214.251 255.484 214.208 255.71C214.176 255.865 214.176 256.025 214.208 256.18C214.259 256.282 214.319 256.379 214.388 256.47C214.513 256.608 214.668 256.713 214.843 256.778C215.017 256.842 215.204 256.864 215.388 256.84C215.907 256.785 216.415 256.657 216.898 256.46C217.478 256.233 218.145 255.933 218.898 255.56L221.158 254.38C221.958 253.953 222.788 253.523 223.648 253.09C224.518 252.65 225.378 252.26 226.238 251.92C227.084 251.588 227.953 251.317 228.838 251.11C229.641 250.904 230.469 250.806 231.298 250.82C232.069 250.84 232.829 251.006 233.538 251.31C234.275 251.64 234.923 252.14 235.428 252.77C236.094 253.519 236.577 254.413 236.838 255.38C237.057 256.233 237.088 257.124 236.928 257.99C236.766 258.873 236.462 259.724 236.028 260.51C235.555 261.343 235.01 262.133 234.398 262.87C233.782 263.635 233.114 264.357 232.398 265.03C231.678 265.7 230.988 266.32 230.298 266.89C228.649 268.297 226.868 269.539 224.978 270.6C223.406 271.498 221.76 272.261 220.058 272.88L216.458 268.58C218.33 268.2 220.143 267.571 221.848 266.71C223.783 265.742 225.596 264.547 227.248 263.15C228.098 262.455 228.894 261.696 229.628 260.88C230.088 260.362 230.484 259.792 230.808 259.18C230.973 258.81 231.039 258.403 230.998 258C230.981 257.731 230.884 257.473 230.718 257.26C230.596 257.117 230.441 257.005 230.268 256.932C230.094 256.859 229.906 256.827 229.718 256.84C229.185 256.857 228.659 256.972 228.168 257.18C227.483 257.429 226.815 257.723 226.168 258.06C225.458 258.43 224.698 258.83 223.908 259.27L221.448 260.57C220.608 261.01 219.748 261.42 218.898 261.78C218.068 262.113 217.22 262.4 216.358 262.64C215.589 262.854 214.796 262.975 213.998 263C213.242 262.996 212.495 262.843 211.798 262.55C211.06 262.226 210.412 261.729 209.908 261.1C209.295 260.406 208.847 259.582 208.598 258.69C208.396 257.903 208.362 257.081 208.498 256.28C208.641 255.449 208.914 254.646 209.308 253.9C209.734 253.106 210.233 252.352 210.798 251.65C211.373 250.946 211.991 250.278 212.648 249.65C213.315 248.983 213.981 248.393 214.648 247.88C215.348 247.29 216.088 246.73 216.878 246.18C217.668 245.63 218.498 245.12 219.318 244.65C220.138 244.18 220.948 243.74 221.748 243.34C222.548 242.94 223.328 242.6 224.048 242.34L227.548 246.5" fill="black"/>
<path d="M261.64 239.74L255.35 232.24L243 242.61L249.3 250.11L244.44 254.18L229.35 236.18L234.2 232.1L239.69 238.65L252 228.3L246.51 221.75L251.37 217.68L266.46 235.68L261.6 239.76" fill="black"/>
<path d="M272.18 230.9L257.09 212.9L261.95 208.82L277.04 226.82L272.18 230.9Z" fill="black"/>
<path d="M299.649 207.85L277.139 205.67L287.509 218L282.659 222.08L267.559 204.08L272.839 199.65L295.399 201.87L284.999 189.5L289.829 185.44L304.919 203.44L299.659 207.86" fill="black"/>
<path d="M306.679 170.52C308.315 169.125 310.087 167.899 311.969 166.86C313.616 165.937 315.335 165.151 317.109 164.51L320.799 168.9C319.998 169.057 319.207 169.26 318.429 169.51C317.538 169.783 316.666 170.118 315.819 170.51C314.869 170.949 313.947 171.446 313.059 172C312.079 172.599 311.143 173.267 310.259 174C309.239 174.831 308.301 175.759 307.459 176.77C306.815 177.543 306.265 178.388 305.819 179.29C305.469 179.993 305.239 180.75 305.139 181.53C304.971 182.783 305.201 184.056 305.799 185.17C306.065 185.661 306.38 186.123 306.739 186.55C307.069 186.936 307.43 187.294 307.819 187.62C308.266 187.989 308.76 188.295 309.289 188.53C309.89 188.78 310.523 188.942 311.169 189.01C311.934 189.084 312.706 189.023 313.449 188.83C314.404 188.59 315.325 188.231 316.189 187.76C317.321 187.128 318.386 186.384 319.369 185.54C319.939 185.06 320.429 184.62 320.829 184.23C321.182 183.871 321.516 183.494 321.829 183.1C322.119 182.766 322.39 182.415 322.639 182.05L323.379 180.96L321.559 178.79L316.109 183.36L312.799 179.42L323.109 170.77L330.819 179.96C330.304 180.798 329.747 181.609 329.149 182.39C328.483 183.23 327.783 184.07 327.049 184.91C326.309 185.75 325.549 186.56 324.749 187.35C323.949 188.14 323.169 188.85 322.419 189.49C321.287 190.445 320.087 191.317 318.829 192.1C317.674 192.819 316.455 193.431 315.189 193.93C314.019 194.371 312.801 194.67 311.559 194.82C310.396 194.961 309.217 194.91 308.069 194.67C306.908 194.416 305.799 193.967 304.789 193.34C303.652 192.617 302.639 191.715 301.789 190.67C300.908 189.648 300.204 188.485 299.709 187.23C299.274 186.113 299.033 184.929 298.999 183.73C298.981 182.54 299.153 181.355 299.509 180.22C299.89 179.018 300.414 177.867 301.069 176.79C301.771 175.623 302.581 174.525 303.489 173.51C304.466 172.436 305.519 171.433 306.639 170.51" fill="black"/>
<path d="M336.909 176.59L321.809 158.59L326.669 154.51L338.459 168.51L351.589 157.51L354.899 161.45L336.899 176.55" fill="black"/>
<path d="M374.539 129.71C375.753 131.099 376.638 132.743 377.129 134.52C377.534 136.162 377.534 137.878 377.129 139.52C376.677 141.319 375.886 143.016 374.799 144.52C373.497 146.329 371.964 147.959 370.239 149.37C368.538 150.829 366.656 152.062 364.639 153.04C362.952 153.853 361.127 154.338 359.259 154.47C357.564 154.58 355.869 154.274 354.319 153.58C352.669 152.768 351.205 151.622 350.022 150.214C348.84 148.805 347.963 147.166 347.449 145.4C347.046 143.758 347.046 142.042 347.449 140.4C347.908 138.597 348.709 136.9 349.809 135.4C351.108 133.574 352.645 131.93 354.379 130.51C356.071 129.052 357.951 127.828 359.969 126.87C361.643 126.053 363.46 125.567 365.319 125.44C367.013 125.336 368.706 125.652 370.249 126.36C371.912 127.15 373.375 128.305 374.529 129.74M369.619 133.85C369.048 133.174 368.373 132.594 367.619 132.13C366.823 131.624 365.911 131.331 364.969 131.28C363.834 131.223 362.7 131.418 361.649 131.85C360.187 132.465 358.835 133.317 357.649 134.37C356.777 135.088 355.979 135.892 355.269 136.77C354.71 137.453 354.243 138.206 353.879 139.01C353.579 139.675 353.39 140.384 353.319 141.11C353.245 141.744 353.279 142.387 353.419 143.01C353.539 143.6 353.745 144.169 354.029 144.7C354.319 145.209 354.654 145.691 355.029 146.14C355.414 146.585 355.835 146.996 356.289 147.37C356.768 147.747 357.296 148.056 357.859 148.29C358.451 148.522 359.075 148.661 359.709 148.7C360.432 148.748 361.158 148.681 361.859 148.5C362.713 148.266 363.535 147.93 364.309 147.5C365.292 146.943 366.22 146.294 367.079 145.56C368.326 144.571 369.401 143.381 370.259 142.04C370.867 141.08 371.256 139.998 371.399 138.87C371.509 137.94 371.382 136.997 371.029 136.13C370.699 135.297 370.241 134.52 369.669 133.83" fill="black"/>
<path d="M382.659 106.76C384.312 105.364 386.101 104.138 387.999 103.1C389.648 102.175 391.371 101.389 393.149 100.75L396.839 105.15C396.038 105.301 395.246 105.501 394.469 105.75C393.579 106.028 392.707 106.362 391.859 106.75C390.907 107.19 389.982 107.688 389.089 108.24C388.109 108.839 387.173 109.507 386.289 110.24C385.271 111.077 384.333 112.008 383.489 113.02C382.849 113.792 382.299 114.634 381.849 115.53C381.503 116.235 381.274 116.992 381.169 117.77C381.084 118.436 381.104 119.111 381.229 119.77C381.345 120.358 381.55 120.925 381.839 121.45C382.101 121.941 382.413 122.403 382.769 122.83C383.099 123.219 383.46 123.581 383.849 123.91C384.301 124.274 384.798 124.577 385.329 124.81C385.923 125.07 386.554 125.232 387.199 125.29C387.963 125.363 388.734 125.306 389.479 125.12C390.434 124.874 391.354 124.511 392.219 124.04C393.354 123.413 394.42 122.669 395.399 121.82C395.979 121.34 396.459 120.9 396.859 120.51C397.259 120.12 397.609 119.74 397.909 119.39C398.209 119.04 398.479 118.67 398.719 118.33L399.449 117.24L397.629 115.07L392.179 119.64L388.879 115.7L399.179 107.05L406.889 116.24C406.374 117.078 405.817 117.889 405.219 118.67C404.553 119.51 403.853 120.35 403.119 121.19C402.389 122.03 401.619 122.85 400.819 123.63C400.019 124.41 399.249 125.13 398.489 125.77C397.357 126.725 396.157 127.597 394.899 128.38C393.745 129.101 392.526 129.713 391.259 130.21C390.093 130.651 388.877 130.949 387.639 131.1C386.476 131.24 385.298 131.192 384.149 130.96C382.99 130.699 381.882 130.25 380.869 129.63C379.735 128.9 378.722 127.996 377.869 126.95C376.99 125.93 376.287 124.771 375.789 123.52C375.329 122.4 375.062 121.21 374.999 120C374.981 118.81 375.154 117.625 375.509 116.49C375.891 115.287 376.418 114.135 377.079 113.06C377.78 111.892 378.59 110.794 379.499 109.78C380.473 108.706 381.522 107.703 382.639 106.78" fill="black"/>
<path d="M428.629 84.31C429.844 85.701 430.73 87.3487 431.219 89.13C431.624 90.7721 431.624 92.4879 431.219 94.13C430.766 95.9309 429.971 97.6282 428.879 99.13C427.58 100.944 426.047 102.578 424.319 103.99C422.621 105.449 420.742 106.682 418.729 107.66C417.042 108.472 415.216 108.957 413.349 109.09C411.651 109.194 409.954 108.889 408.399 108.2C406.728 107.418 405.258 106.265 404.099 104.83C402.888 103.444 402.012 101.798 401.539 100.02C401.135 98.3778 401.135 96.6623 401.539 95.02C401.992 93.2172 402.79 91.5192 403.889 90.02C406.54 86.4009 410.025 83.4748 414.049 81.49C415.727 80.6726 417.547 80.187 419.409 80.06C421.1 79.9562 422.79 80.2723 424.329 80.98C425.991 81.7667 427.454 82.9187 428.609 84.35M423.699 88.47C423.13 87.7921 422.454 87.2112 421.699 86.75C420.902 86.2439 419.991 85.948 419.049 85.89C417.917 85.8425 416.787 86.0403 415.739 86.47C414.277 87.0854 412.925 87.9367 411.739 88.99C410.864 89.7049 410.066 90.5093 409.359 91.39C408.794 92.0704 408.323 92.8239 407.959 93.63C407.664 94.2966 407.475 95.0051 407.399 95.73C407.331 96.3646 407.365 97.006 407.499 97.63C407.623 98.2204 407.831 98.7897 408.119 99.32C408.402 99.8332 408.737 100.316 409.119 100.76C409.498 101.209 409.92 101.621 410.379 101.99C410.858 102.367 411.386 102.677 411.949 102.91C412.537 103.143 413.158 103.281 413.789 103.32C414.515 103.368 415.244 103.301 415.949 103.12C416.802 102.884 417.624 102.548 418.399 102.12C419.379 101.563 420.303 100.913 421.159 100.18C422.406 99.1878 423.484 97.9989 424.349 96.66C424.954 95.6994 425.34 94.617 425.479 93.49C425.593 92.5609 425.469 91.6182 425.119 90.75C424.786 89.9162 424.323 89.14 423.749 88.45" fill="black"/>
</g>
</svg>
